<?xml version="1.0" encoding="utf-8"?>
<!-- Generator: Adobe Illustrator 22.0.1, SVG Export Plug-In . SVG Version: 6.00 Build 0)  -->
<svg version="1.1" id="Слой_1" xmlns="http://www.w3.org/2000/svg" xmlns:xlink="http://www.w3.org/1999/xlink" x="0px" y="0px"
	 viewBox="0 0 428 69.4" style="enable-background:new 0 0 428 69.4;" xml:space="preserve">
<style type="text/css">
	.st0{fill:#FFFFFF;}
</style>
<g>
	<polygon class="st0" points="356.3,0.5 308.8,68.8 293.8,68.8 279.4,0.5 298.3,0.5 307.3,43.3 337,0.5 	"/>
	<polygon class="st0" points="270.9,0.5 252.9,68.7 234.4,68.8 252.8,0.4 	"/>
	<polygon class="st0" points="177.3,0.5 158.9,68.8 177.4,68.8 184.5,42.2 210,42.2 202.7,68.8 220.8,68.8 239.1,0.6 221.2,0.5 
		213.8,27.6 188.4,27.6 195.7,0.5 	"/>
	<polygon class="st0" points="0,68.6 47.5,0.4 62.5,0.4 76.9,68.7 58,68.7 49,25.8 19.3,68.7 	"/>
	<g>
		<polygon class="st0" points="366.6,0.7 426.9,0.4 422.9,15.1 362.5,15.5 		"/>
		<polygon class="st0" points="359.4,27.4 420,27.4 416,41.6 355.7,41.7 		"/>
		<polygon class="st0" points="352.7,53 412.9,53 408.9,68.4 348.2,68.6 		"/>
	</g>
	<path class="st0" d="M158,16.8c-2.9-8.5-11.6-15.9-20.9-16.1c-12.8-0.2-33.7,0-33.7,0l-18,68c0,0,21,0.1,36.1,0.1
		s28.1-11.2,34.6-26.5C158.5,36.3,161,25.9,158,16.8z M141.9,35.9c-1.1,3-7,16.3-20.8,16.8c-2.2,0.1-14.1,0.1-14.1,0.1l9.6-36.4
		c0,0,9.1-0.5,15.8-0.1C143.7,16.8,145.3,26.7,141.9,35.9z"/>
</g>
</svg>
