<?xml version="1.0" encoding="iso-8859-1"?>
<!-- Generator: Adobe Illustrator 19.1.0, SVG Export Plug-In . SVG Version: 6.00 Build 0)  -->
<svg xmlns="http://www.w3.org/2000/svg" xmlns:xlink="http://www.w3.org/1999/xlink" version="1.1" id="Capa_1" x="0px" y="0px" viewBox="0 0 138.943 138.943" style="enable-background:new 0 0 138.943 138.943;" xml:space="preserve" width="22px" height="20px">
<g>
	<path d="M98.533,73.795H67.147c-1.941,0-3.514,1.573-3.514,3.514v23.074c0,1.941,1.573,3.514,3.514,3.514h31.386   c1.941,0,3.514-1.573,3.514-3.514V77.309C102.047,75.368,100.474,73.795,98.533,73.795z M78.199,92.979   c-2.283,0-4.133-1.851-4.133-4.133s1.85-4.133,4.133-4.133c2.283,0,4.133,1.85,4.133,4.133S80.481,92.979,78.199,92.979z" fill="#FFFFFF"/>
	<path d="M98.535,66.644" fill="#FFFFFF"/>
	<path d="M67.147,43.422H11.529c-1.941,0-3.514-1.573-3.514-3.514s1.573-3.514,3.514-3.514h55.618c1.941,0,3.514,1.573,3.514,3.514   S69.088,43.422,67.147,43.422z" fill="#FFFFFF"/>
	<path d="M102.047,129.953c-1.941,0-3.514-1.573-3.514-3.514V111.84c0-1.941,1.573-3.514,3.514-3.514s3.514,1.573,3.514,3.514   v14.599C105.56,128.38,103.988,129.953,102.047,129.953z" fill="#FFFFFF"/>
	<path d="M138.023,35.708l-24.315-25.667c-0.619-0.654-1.476-1.032-2.378-1.048c-0.902-0.039-1.77,0.332-2.412,0.965L80.06,38.368   c-0.97,0.956-1.266,2.403-0.75,3.663c0.514,1.261,1.741,2.085,3.105,2.085h14.721V65.65c0,1.854,1.503,3.356,3.356,3.356h8.548   c0.913,0,1.788-0.372,2.42-1.031l26.547-27.633C139.25,39.05,139.255,37.01,138.023,35.708z M113.006,46.515v2.86h-1.732v-2.777   c-1.595-0.028-3.245-0.523-4.205-1.211l0.659-1.842c0.991,0.66,2.421,1.182,3.958,1.182c1.952,0,3.272-1.127,3.272-2.694   c0-1.511-1.071-2.446-3.107-3.271c-2.803-1.101-4.535-2.365-4.535-4.757c0-2.281,1.622-4.013,4.15-4.426v-2.776h1.705v2.667   c1.65,0.055,2.778,0.495,3.574,0.962l-0.686,1.814c-0.576-0.329-1.705-0.934-3.464-0.934c-2.117,0-2.915,1.265-2.915,2.365   c0,1.429,1.018,2.144,3.409,3.133c2.833,1.156,4.263,2.584,4.263,5.031C117.351,44.014,115.839,46.048,113.006,46.515z" fill="#FFFFFF"/>
	<path d="M93.101,71.317V51.252c0-1.941-1.573-3.514-3.514-3.514H3.514C1.573,47.739,0,49.311,0,51.252v75.187   c0,1.941,1.573,3.514,3.514,3.514h86.074c1.941,0,3.514-1.573,3.514-3.514v-20.065H81.284v0.591c0,0.582-0.472,1.054-1.054,1.054   c-0.582,0-1.054-0.472-1.054-1.054v-0.591H64.564c-2.26,0-4.092-1.832-4.092-4.092V75.409c0-2.26,1.832-4.092,4.092-4.092h14.612   v-0.59c0-0.582,0.472-1.054,1.054-1.054c0.582,0,1.054,0.472,1.054,1.054v0.59H93.101z M11.814,70.728   c0-0.582,0.472-1.054,1.054-1.054c0.582,0,1.054,0.472,1.054,1.054v7.248c0,0.582-0.472,1.054-1.054,1.054   c-0.582,0-1.054-0.472-1.054-1.054V70.728z M11.814,85.222c0-0.582,0.472-1.054,1.054-1.054c0.582,0,1.054,0.472,1.054,1.054v7.248   c0,0.582-0.472,1.054-1.054,1.054c-0.582,0-1.054-0.472-1.054-1.054V85.222z M11.814,99.717c0-0.582,0.472-1.054,1.054-1.054   c0.582,0,1.054,0.472,1.054,1.054v7.248c0,0.582-0.472,1.054-1.054,1.054c-0.582,0-1.054-0.472-1.054-1.054V99.717z    M16.923,119.322h-4.054c-0.582,0-1.054-0.472-1.054-1.054v-4.056c0-0.582,0.472-1.054,1.054-1.054   c0.582,0,1.054,0.472,1.054,1.054v3.002h3c0.582,0,1.054,0.472,1.054,1.054C17.977,118.85,17.504,119.322,16.923,119.322z    M16.923,60.479h-3v3c0,0.582-0.472,1.054-1.054,1.054c-0.582,0-1.054-0.472-1.054-1.054v-4.054c0-0.582,0.472-1.054,1.054-1.054   h4.054c0.582,0,1.054,0.472,1.054,1.054C17.977,60.007,17.504,60.479,16.923,60.479z M33.851,119.322h-8.463   c-0.582,0-1.054-0.472-1.054-1.054c0-0.582,0.472-1.054,1.054-1.054h8.463c0.582,0,1.054,0.472,1.054,1.054   C34.905,118.85,34.433,119.322,33.851,119.322z M33.854,60.479h-8.465c-0.582,0-1.054-0.472-1.054-1.054   c0-0.582,0.472-1.054,1.054-1.054h8.465c0.582,0,1.054,0.472,1.054,1.054C34.908,60.007,34.436,60.479,33.854,60.479z    M50.782,119.322h-8.466c-0.582,0-1.054-0.472-1.054-1.054c0-0.582,0.472-1.054,1.054-1.054h8.466c0.582,0,1.054,0.472,1.054,1.054   C51.836,118.85,51.364,119.322,50.782,119.322z M50.782,60.479h-8.466c-0.582,0-1.054-0.472-1.054-1.054   c0-0.582,0.472-1.054,1.054-1.054h8.466c0.582,0,1.054,0.472,1.054,1.054C51.836,60.007,51.364,60.479,50.782,60.479z    M76.175,117.214h3v-3.002c0-0.582,0.472-1.054,1.054-1.054c0.582,0,1.054,0.472,1.054,1.054v4.056   c0,0.582-0.472,1.054-1.054,1.054h-4.054c-0.582,0-1.054-0.472-1.054-1.054C75.121,117.686,75.594,117.214,76.175,117.214z    M67.71,117.214c0.582,0,1.054,0.472,1.054,1.054c0,0.582-0.472,1.054-1.054,1.054h-8.465c-0.582,0-1.054-0.472-1.054-1.054   c0-0.582,0.472-1.054,1.054-1.054H67.71z M67.71,60.479h-8.463c-0.582,0-1.054-0.472-1.054-1.054c0-0.582,0.472-1.054,1.054-1.054   h8.463c0.582,0,1.054,0.472,1.054,1.054C68.764,60.007,68.292,60.479,67.71,60.479z M80.23,64.533   c-0.582,0-1.054-0.472-1.054-1.054v-3h-3c-0.582,0-1.054-0.472-1.054-1.054c0-0.582,0.472-1.054,1.054-1.054h4.054   c0.582,0,1.054,0.472,1.054,1.054v4.054C81.284,64.061,80.812,64.533,80.23,64.533z" fill="#FFFFFF"/>
</g>
<g>
</g>
<g>
</g>
<g>
</g>
<g>
</g>
<g>
</g>
<g>
</g>
<g>
</g>
<g>
</g>
<g>
</g>
<g>
</g>
<g>
</g>
<g>
</g>
<g>
</g>
<g>
</g>
<g>
</g>
</svg>
